<?xml version="1.0" encoding="UTF-8"?>
<svg xmlns="http://www.w3.org/2000/svg" baseProfile="tiny" version="1.2" viewBox="0 0 800 800">
  <circle cx="400" cy="400" r="400" fill="#0098ea" stroke-width="0"/>
  <g>
    <ellipse cx="269.502" cy="597.32" rx="70.454" ry="78.283" fill="#fff" stroke="#fff" stroke-miterlimit="10"/>
    <ellipse cx="529.026" cy="597.32" rx="70.454" ry="78.283" fill="#fff" stroke="#fff" stroke-miterlimit="10"/>
    <path d="M220.522,409.673c-7.828-7.828-9.761-13.556-10.104-20.847-.264-5.605,0-86.111,0-86.111,0,0,13.954-1.862,19.936-10.009s6.061-20.898,3.549-29.132c-2.512-8.234-7.828-15.657-15.657-15.657-3.878,0-15.657,0-7.828,15.657,7.828,15.657,0,23.485-11.29,23.378-11.29-.107-20.023-7.723-12.195-23.38s-3.914-15.655-7.828-15.655c-7.828,0-12.823,6.18-15.657,15.657-2.834,9.476-3.542,18.86,3.551,29.134,7.093,10.274,19.934,10.007,19.934,10.007,0,0,1.17,70.625,1.17,86.281s6.658,29.696,14.487,37.525,70.454,40.588,70.454,40.588v-26.293s-44.693-23.315-52.522-31.143Z" fill="#fff" stroke="#fff" stroke-miterlimit="10"/>
    <path d="M632.769,613.791c-7.231-10.177-20.067-9.738-20.067-9.738,0,0-2.122-70.602-2.333-86.258-.211-15.655-7.058-29.604-14.991-37.326-7.933-7.722-70.995-39.635-70.995-39.635l.354,26.29s45.004,22.71,52.937,30.432c7.933,7.722,9.943,13.423,10.384,20.709.339,5.601,1.161,86.103,1.161,86.103,0,0-13.927,2.05-19.799,10.277s-5.779,20.978-3.156,29.177c2.623,8.2,8.039,15.55,15.866,15.444,3.877-.052,15.655-.211,7.617-15.761-8.039-15.55-.317-23.483,10.974-23.528,11.291-.045,20.125,7.453,12.509,23.213-7.617,15.761,4.125,15.6,8.039,15.548,7.828-.106,12.738-6.353,15.444-15.866s3.288-18.906-3.943-29.084Z" fill="#fff" stroke="#fff" stroke-miterlimit="10"/>
    <path d="M520.006,354.644c-3.914-12.941-50.884-31.313-117.424-31.313s-121.338,21.28-125.252,31.313c-3.914,10.034-7.828,242.676,0,250.505,7.828,7.828,234.848,7.828,242.676,0,7.828-7.828,3.914-237.564,0-250.505ZM300.815,397.699c0-19.455,15.772-35.227,35.227-35.227s35.227,15.772,35.227,35.227-15.772,35.227-35.227,35.227-35.227-15.772-35.227-35.227ZM406.652,500.892c-27.555,2.489-73.844-28.526-50.699-28.675,23.144-.149,74.539.149,91.897,0,17.358-.149-13.643,26.186-41.198,28.675ZM461.294,432.927c-19.455,0-35.227-15.772-35.227-35.227s15.772-35.227,35.227-35.227,35.227,15.772,35.227,35.227-15.772,35.227-35.227,35.227Z" fill="#fff" stroke="#fff" stroke-miterlimit="10"/>
    <path d="M513.595,156.86c0,7.828-7.828,117.424,0,125.252,7.828,7.828,62.626-7.828,70.454,0,7.828,7.828,7.828,23.485,0,31.313-7.828,7.828-39.141,39.141-54.798,39.141h-259.29c-14.699,0-46.012-31.313-53.841-39.141-7.828-7.828-7.828-23.485,0-31.313s62.626,7.828,70.454,0c7.828-7.828,0-117.424,0-125.252s55.11-32.589,113.666-31.951c58.556.638,113.354,24.123,113.354,31.951Z" fill="#fff" stroke="#fff" stroke-miterlimit="10"/>
  </g>
</svg>